<?xml version="1.0" encoding="utf-8"?>
<!-- Generator: Adobe Illustrator 25.2.1, SVG Export Plug-In . SVG Version: 6.00 Build 0)  -->
<svg version="1.1" id="Layer_1" xmlns="http://www.w3.org/2000/svg" xmlns:xlink="http://www.w3.org/1999/xlink" x="0px" y="0px"
	 viewBox="0 0 300 300" style="enable-background:new 0 0 300 300;" xml:space="preserve">
<style type="text/css">
	.st0 {fill:#FBB03B;}
	@keyframes rotation {
    from {
      transform: rotate(0deg);
    }
    to {
      transform: rotate(359deg);
    }
  	}
	#sun {
		fill:#FBB03B;
	}
	#rays{
		animation: rotation 10s infinite linear;
		position:fixed;
		transform-origin:center;
		transform-box:fill-box;
		fill:#FBB03B;
	}
</style>
<circle id="sun" class="st0" cx="147" cy="150" r="94.2"/>
<g id="rays">
	<path class="st0" d="M41.1,150.1c0-1.8,0-3.7,0.1-5.5H10.9v10.7h30.4C41.2,153.6,41.1,151.9,41.1,150.1z"/>
	<path class="st0" d="M76,71.8l-22-22l-7.6,7.6l22,22C70.9,76.7,73.4,74.2,76,71.8z"/>
	<path class="st0" d="M111.1,50.8L99.3,22.2l-9.9,4.1l11.8,28.6C104.4,53.4,107.7,52,111.1,50.8z"/>
	<path class="st0" d="M51,105.7L22.5,94.2l-4,9.9l28.4,11.5C48.1,112.2,49.5,108.9,51,105.7z"/>
	<path class="st0" d="M246,114.9l29.4-12.2l-4.1-9.9l-29.4,12.1C243.4,108.3,244.8,111.6,246,114.9z"/>
	<path class="st0" d="M224.8,79.4l22.1-22.1l-7.6-7.6l-22.1,22.1C219.9,74.3,222.4,76.8,224.8,79.4z"/>
	<path class="st0" d="M146.6,44.7c2,0,4.1,0.1,6.1,0.2V13.6h-10.7v31.2C143.5,44.7,145,44.7,146.6,44.7z"/>
	<path class="st0" d="M191,54.5l11.7-29l-9.9-4l-11.7,29C184.5,51.7,187.8,53,191,54.5z"/>
	<path class="st0" d="M146.6,255.5c-1.5,0-3.1-0.1-4.6-0.1v30.9h10.7v-31C150.6,255.5,148.6,255.5,146.6,255.5z"/>
	<path class="st0" d="M217.4,228.2l22,22l7.6-7.6l-22-22C222.5,223.3,220,225.8,217.4,228.2z"/>
	<path class="st0" d="M242.2,194.5l29.2,11.8l4-9.9l-29.2-11.8C245,188,243.7,191.3,242.2,194.5z"/>
	<path class="st0" d="M251.9,144.7c0.1,1.8,0.1,3.6,0.1,5.5c0,1.7,0,3.5-0.1,5.2h31.8v-10.7H251.9z"/>
	<path class="st0" d="M102.2,245.8l-11.6,28.7l9.9,4l11.6-28.7C108.7,248.6,105.4,247.3,102.2,245.8z"/>
	<path class="st0" d="M68.3,220.8l-21.9,21.9l7.6,7.6l21.9-21.9C73.3,226,70.7,223.4,68.3,220.8z"/>
	<path class="st0" d="M181.6,249.5l11.9,28.8l9.9-4.1l-11.9-28.8C188.3,247,185,248.4,181.6,249.5z"/>
	<path class="st0" d="M47.2,185.5l-28,11.6l4.1,9.9l28-11.6C49.8,192.2,48.4,188.9,47.2,185.5z"/>
</g>
</svg>
