<?xml version="1.0" encoding="utf-8"?>
<!-- Generator: Adobe Illustrator 25.2.1, SVG Export Plug-In . SVG Version: 6.00 Build 0)  -->
<svg version="1.1" id="Layer_1" xmlns="http://www.w3.org/2000/svg" xmlns:xlink="http://www.w3.org/1999/xlink" x="0px" y="0px"
	 viewBox="0 0 300 300" style="enable-background:new 0 0 300 300;" xml:space="preserve">
<style type="text/css">
	.st0{fill:#FBB03B;}

	@keyframes rotation {
    from {
      transform: rotate(0deg);
    }
    to {
      transform: rotate(359deg);
    }
  	}
	
	#rays{
		animation: rotation 10s infinite linear;
		position:fixed;
		transform-origin:center;
		transform-box:fill-box;
	}
</style>
<circle id="sun" class="st0" cx="151.8" cy="154.8" r="87.5"/>
<g id="rays">
	<path class="st0" d="M53.5,154.9c0-1.7,0-3.4,0.1-5.1H25.4v9.9h28.2C53.6,158.2,53.5,156.6,53.5,154.9z"/>
	<path class="st0" d="M85.9,82.2L65.5,61.7l-7.1,7.1l20.4,20.4C81.2,86.7,83.5,84.4,85.9,82.2z"/>
	<path class="st0" d="M118.5,62.7l-11-26.6l-9.2,3.8l11,26.6C112.3,65.1,115.3,63.8,118.5,62.7z"/>
	<path class="st0" d="M62.7,113.7L36.2,103l-3.7,9.2l26.4,10.7C60,119.7,61.3,116.6,62.7,113.7z"/>
	<path class="st0" d="M243.8,122.2l27.3-11.3l-3.8-9.2L240,112.9C241.4,116.1,242.7,119.2,243.8,122.2z"/>
	<path class="st0" d="M224.1,89.2l20.5-20.5l-7.1-7.1L217,82.1C219.6,84.5,221.9,86.8,224.1,89.2z"/>
	<path class="st0" d="M151.5,57c1.9,0,3.8,0.1,5.7,0.2V28.1h-9.9v29C148.6,57,150,57,151.5,57z"/>
	<path class="st0" d="M192.7,66.1l10.9-26.9l-9.2-3.7l-10.9,26.9C186.7,63.5,189.7,64.7,192.7,66.1z"/>
	<path class="st0" d="M151.5,252.8c-1.4,0-2.9-0.1-4.3-0.1v28.7h9.9v-28.8C155.2,252.8,153.3,252.8,151.5,252.8z"/>
	<path class="st0" d="M217.2,227.5l20.4,20.4l7.1-7.1l-20.4-20.4C222,222.9,219.7,225.2,217.2,227.5z"/>
	<path class="st0" d="M240.3,196.2l27.1,11l3.7-9.2L244,187C242.9,190.1,241.7,193.2,240.3,196.2z"/>
	<path class="st0" d="M249.3,149.9c0.1,1.7,0.1,3.3,0.1,5.1c0,1.6,0,3.3-0.1,4.8h29.5v-9.9L249.3,149.9L249.3,149.9z"/>
	<path class="st0" d="M110.2,243.8l-10.8,26.7l9.2,3.7l10.8-26.7C116.3,246.4,113.2,245.2,110.2,243.8z"/>
	<path class="st0" d="M78.7,220.6l-20.3,20.3l7.1,7.1l20.3-20.3C83.4,225.4,81,223,78.7,220.6z"/>
	<path class="st0" d="M184,247.2l11,26.8l9.2-3.8l-11.1-26.8C190.2,244.9,187.1,246.2,184,247.2z"/>
	<path class="st0" d="M59.1,187.8l-26,10.8l3.8,9.2L63,197C61.6,194,60.3,191,59.1,187.8z"/>
</g>
</svg>
