<?xml version="1.0" encoding="utf-8"?>
<!-- Generator: Adobe Illustrator 25.2.1, SVG Export Plug-In . SVG Version: 6.00 Build 0)  -->
<svg version="1.1" id="Layer_1" xmlns="http://www.w3.org/2000/svg" xmlns:xlink="http://www.w3.org/1999/xlink" x="0px" y="0px"
	 viewBox="0 0 300 300" style="enable-background:new 0 0 300 300;" xml:space="preserve">
<style type="text/css">
	.st0{fill:#FFDF57;}
	
	@keyframes little-star-rotation {
		0% {
			transform: rotate(0deg);
			opacity: 0;
			}
		50% {
			transform: rotate(179.5deg);
			opacity: 1;
			}
		100%{
			transform: rotate(0deg);
			opacity: 0;
		}
		}

		@keyframes big-star-rotation {
		0% {
			transform: rotate(359deg);
			opacity: 0;
			}
		50% {
			transform: rotate(150.5deg);
			opacity: 1;
			}
		100%{
			transform: rotate(269deg);
			opacity: 0;
		}
		}
	
	#littlestar{
		animation: little-star-rotation 2.5s infinite linear;
		position:fixed;
		transform-origin:center;
		transform-box:fill-box;
		animation-delay:.5s
	}

	#big-star{
		animation: big-star-rotation 2.5s infinite linear;
		position:fixed;
		transform-origin:center;
		transform-box:fill-box;
	}
	}

</style>
<path class="st0" d="M223.6,251.9c-3.4,0-6.8-0.1-10.1-0.4c-66.4-5.2-118.6-60.7-118.6-128.3c0-51.8,30.6-96.4,74.6-116.8
	c0,0,0,0,0,0C113.7,7,61,40.3,38.4,95.2c-30.3,73.4,4.7,157.3,78,187.6c62.3,25.7,132.2,4.4,170.4-47.5
	C268.2,245.8,246.6,251.9,223.6,251.9z"/>
<path id="littlestar" class="st0" d="M175.2,73.7c-0.3-5.2-0.6-10.5-0.9-15.7c-4.8-1.8-9.7-3.5-14.5-5.3c5.3-0.3,10.7-0.7,16-1
	c1.7-4.8,3.3-9.6,5-14.5c0.2,5.1,0.4,10.2,0.6,15.3c5,1.9,9.9,3.8,14.9,5.7c-5.3,0.2-10.6,0.4-15.9,0.6
	C178.7,63.8,177,68.8,175.2,73.7z"/>
<path id="big-star" class="st0" d="M142.9,120c-2.3-3.2-4.5-6.3-6.8-9.5c-3.7,0.8-7.5,1.6-11.2,2.4c3.2-2.3,6.4-4.6,9.6-6.9
	c-0.8-3.7-1.7-7.4-2.5-11c2.1,3.1,4.2,6.3,6.4,9.4c3.9-0.8,7.7-1.5,11.6-2.3c-3.2,2.2-6.5,4.4-9.7,6.6
	C141.2,112.5,142,116.2,142.9,120z"/>
</svg>