
<svg version="1.1" id="Layer_1" xmlns="http://www.w3.org/2000/svg" xmlns:xlink="http://www.w3.org/1999/xlink" x="0px" y="0px"
	 viewBox="0 0 300 300" style="enable-background:new 0 0 300 300;" xml:space="preserve">
<style type="text/css">
	.st0{fill:#FFE003;stroke:#FFE003;stroke-miterlimit:10;}
</style>
<g id="glow">
	
		<image style="overflow:visible;" width="300" height="312" xlink:href="191CD63AAAC40236.png"  transform="matrix(1 0 0 1 10 -18)">
	</image>
</g>
<path id="moon" class="st0" d="M124.4,160.2c-25.1-48.4-6.2-107.9,42.2-132.9c5.4-2.8,11-5.1,16.7-6.8c-23.7-3.4-48.7,0.3-71.6,12.2
	c-58.4,30.3-81.2,102.1-51,160.5c30.3,58.4,102.1,81.2,160.5,51c22.9-11.9,40.3-30.1,51.2-51.5c-4.7,3.6-9.7,6.9-15.2,9.7
	C208.9,227.4,149.4,208.5,124.4,160.2z"/>
</svg>
