<?xml version="1.0" encoding="utf-8"?>
<!-- Generator: Adobe Illustrator 25.2.1, SVG Export Plug-In . SVG Version: 6.00 Build 0)  -->
<svg version="1.1" id="Layer_1" xmlns="http://www.w3.org/2000/svg" xmlns:xlink="http://www.w3.org/1999/xlink" x="0px" y="0px"
	 viewBox="0 0 300 300" style="enable-background:new 0 0 300 300;" xml:space="preserve">
<style type="text/css">
	.st0{fill:#C1CCDB;}
	.st1{fill:#FBB03B;}
	.st2{fill:#E3ECFF;}

	@keyframes bounce-up{
		0%   { transform: translateY(0px); }
		50%  { transform: translateY(20px); }
		100% { transform: translateY(0px); }
	}

	@keyframes bounce-down{
		0%   { transform: translateY(0px); }
		50%  { transform: translateY(-20px); }
		100% { transform: translateY(0px); }
	}

	@keyframes rotation {
		from {
		transform: rotate(0deg);
		}
		to {
		transform: rotate(359deg);
		}
	}

	#dark_cloud.st0{
    	fill:#C1CCDB;
		animation: bounce-up 2s infinite;
		animation-timing-function: ease;
		}


	#light_cloud{fill:#E3ECFF;
		animation: bounce-down 2s infinite;
		animation-timing-function: ease;
		}

	#sun {
    	fill:#FBB03B;
		}

	#rays{
		animation: rotation 10s infinite linear;
		position:fixed;
		transform-origin:center;
		transform-box:fill-box;
		fill:#FBB03B;
	}
</style>
<path id="dark_cloud" class="st0" d="M238.7,128.1c-4.5-32.9-32.7-58.2-66.8-58.2c-27.7,0-51.4,16.7-61.8,40.5
	c-2.4-0.4-5-0.6-7.5-0.6c-26.2,0-47.5,21.3-47.5,47.5c0,25.5,20.1,46.3,45.3,47.4l0,0h0.1c0.7,0,1.4,0.1,2,0.1c0.7,0,1.4,0,2-0.1
	h65.3c0.7,0,1.4,0.1,2,0.1s1.4,0,2-0.1h54c0.3,0,0.7,0.1,1,0.1c21.5,0,39-17.4,39-39C268,147.6,255.5,132.4,238.7,128.1z"/>
<path class="st1" d="M366.6,162.6"/>
<path class="st1" d="M486.9,162.6"/>
<circle id="sun" class="st1" cx="115.7" cy="123.2" r="60.1"/>
<g id="rays">
	<path class="st1" d="M47.9,123.3c0-1.2,0-2.3,0.1-3.5H28.6v6.8H48C47.9,125.5,47.9,124.4,47.9,123.3z"/>
	<path class="st1" d="M70.2,73.2l-14-14L51.3,64l14,14C66.9,76.4,68.5,74.8,70.2,73.2z"/>
	<path class="st1" d="M92.5,59.9L85,41.6l-6.3,2.6l7.6,18.3C88.3,61.5,90.4,60.6,92.5,59.9z"/>
	<path class="st1" d="M54.1,94.9L36,87.6l-2.6,6.3l18.1,7.3C52.3,99.1,53.2,97,54.1,94.9z"/>
	<path class="st1" d="M178.7,100.8l18.8-7.8l-2.6-6.3l-18.8,7.8C177,96.5,177.9,98.6,178.7,100.8z"/>
	<path class="st1" d="M165.2,78.1L179.3,64l-4.8-4.8l-14.1,14.1C162,74.8,163.6,76.5,165.2,78.1z"/>
	<path class="st1" d="M115.2,55.9c1.3,0,2.6,0,3.9,0.1v-20h-6.8V56C113.2,56,114.2,55.9,115.2,55.9z"/>
	<path class="st1" d="M143.6,62.2l7.5-18.5l-6.3-2.6l-7.5,18.5C139.4,60.4,141.6,61.3,143.6,62.2z"/>
	<path class="st1" d="M115.2,190.6c-1,0-2,0-3-0.1v19.8h6.8v-19.8C117.8,190.6,116.5,190.6,115.2,190.6z"/>
	<path class="st1" d="M160.4,173.2l14,14l4.8-4.8l-14-14C163.7,170,162.1,171.6,160.4,173.2z"/>
	<path class="st1" d="M176.3,151.6l18.7,7.5l2.6-6.3l-18.7-7.5C178.1,147.5,177.2,149.6,176.3,151.6z"/>
	<path class="st1" d="M182.4,119.8c0.1,1.2,0.1,2.3,0.1,3.5c0,1.1,0,2.2-0.1,3.3h20.3v-6.8H182.4z"/>
	<path class="st1" d="M86.9,184.4l-7.4,18.3l6.3,2.6l7.4-18.3C91.1,186.2,88.9,185.3,86.9,184.4z"/>
	<path class="st1" d="M65.3,168.4l-14,14l4.8,4.8l14-14C68.4,171.7,66.8,170.1,65.3,168.4z"/>
	<path class="st1" d="M137.6,186.8l7.6,18.4l6.3-2.6l-7.6-18.4C141.9,185.1,139.8,186,137.6,186.8z"/>
	<path class="st1" d="M51.8,145.9l-17.9,7.4l2.6,6.3l17.9-7.4C53.4,150.1,52.5,148,51.8,145.9z"/>
</g>
<path id="light_cloud" class="st2" d="M215.6,153.4c-4.5-32.9-32.7-58.2-66.8-58.2c-27.7,0-51.4,16.7-61.8,40.5
	c-2.4-0.4-5-0.6-7.5-0.6c-26.2,0-47.5,21.3-47.5,47.5c0,25.5,20.1,46.3,45.3,47.4l0,0h0.1c0.7,0,1.4,0.1,2,0.1c0.7,0,1.4,0,2-0.1
	h65.3c0.7,0,1.4,0.1,2,0.1s1.4,0,2-0.1h54c0.3,0,0.7,0.1,1,0.1c21.5,0,39-17.4,39-39C244.9,172.9,232.5,157.7,215.6,153.4z"/>
</svg>
