<?xml version="1.0" encoding="utf-8"?>
<!-- Generator: Adobe Illustrator 25.2.1, SVG Export Plug-In . SVG Version: 6.00 Build 0)  -->
<svg version="1.1" id="Layer_1" xmlns="http://www.w3.org/2000/svg" xmlns:xlink="http://www.w3.org/1999/xlink" x="0px" y="0px"
	 viewBox="0 0 300 300" style="enable-background:new 0 0 300 300;" xml:space="preserve">
<style type="text/css">
	.st0{fill:#FFDF57;stroke:#FFDF57;stroke-miterlimit:10;}
	.st1{fill:#C1CCDB;}

	@keyframes little-star-rotation {
		0% {
			transform: rotate(0deg);
			opacity: 0;
			}
		50% {
			transform: rotate(179.5deg);
			opacity: 1;
			}
		100%{
			transform: rotate(0deg);
			opacity: 0;
		}
		}

		@keyframes big-star-rotation {
		0% {
			transform: rotate(359deg);
			opacity: 0;
			}
		50% {
			transform: rotate(150.5deg);
			opacity: 1;
			}
		100%{
			transform: rotate(269deg);
			opacity: 0;
		}
		}

		@keyframes bounce-up{
			0%   { transform: translateY(0px); }
			50%  { transform: translateY(15px); }
			100% { transform: translateY(0px); }
		}
	
	#littlestar{
		animation: little-star-rotation 2.5s infinite linear;
		position:fixed;
		transform-origin:center;
		transform-box:fill-box;
		animation-delay:.5s
	}

	#big-star{
		animation: big-star-rotation 2.5s infinite linear;
		position:fixed;
		transform-origin:center;
		transform-box:fill-box;
	}
	
	#dark_cloud.st1{
    fill:#C1CCDB;
    animation: bounce-up 2s infinite;
    animation-timing-function: ease;
    }
</style>
<path class="st0" d="M165,195.3c-2.4,0-4.7-0.1-7-0.3c-45.9-3.6-82-41.9-82-88.8c0-35.8,21.1-66.7,51.6-80.8c0,0,0,0,0,0
	C89,26,52.6,49,36.9,87c-20.9,50.7,3.2,108.8,54,129.7c43.1,17.8,91.4,3,117.8-32.9C195.8,191.2,180.9,195.3,165,195.3z"/>
<path id="big-star" class="st0" d="M133.5,69.2c-0.2-3.7-0.4-7.4-0.7-11.1c-3.4-1.2-6.8-2.5-10.2-3.7c3.8-0.2,7.5-0.5,11.3-0.7
	c1.2-3.4,2.4-6.8,3.5-10.2c0.1,3.6,0.3,7.2,0.4,10.8c3.5,1.3,7,2.7,10.5,4c-3.7,0.1-7.4,0.3-11.2,0.4
	C135.9,62.2,134.7,65.7,133.5,69.2z"/>
<path id="littlestar" class="st0" d="M110.7,101.8c-1.6-2.2-3.2-4.5-4.8-6.7c-2.6,0.6-5.3,1.1-7.9,1.7c2.3-1.6,4.5-3.2,6.8-4.9
	c-0.6-2.6-1.2-5.2-1.8-7.8c1.5,2.2,3,4.4,4.5,6.6c2.7-0.5,5.4-1.1,8.2-1.6c-2.3,1.6-4.6,3.1-6.8,4.7
	C109.5,96.5,110.1,99.2,110.7,101.8z"/>
<path id="dark_cloud" class="st1" d="M256.5,173.3C250.3,128,211.4,93,164.3,93c-38.2,0-71,23-85.4,55.9c-3.4-0.5-6.9-0.8-10.4-0.8
	C32.4,148.1,3,177.5,3,213.7c0,35.2,27.8,63.9,62.6,65.5l0,0h0.1c0.9,0,1.9,0.1,2.8,0.1c0.9,0,1.9,0,2.8-0.1h90.2
	c0.9,0,1.9,0.1,2.8,0.1s1.9-0.1,2.8-0.1h74.6c0.5,0,0.9,0.1,1.4,0.1c29.7,0,53.8-24.1,53.8-53.8C297,200.3,279.8,179.3,256.5,173.3z
	"/>
</svg>