<?xml version="1.0" encoding="utf-8"?>
<!-- Generator: Adobe Illustrator 25.2.1, SVG Export Plug-In . SVG Version: 6.00 Build 0)  -->
<svg version="1.1" id="Layer_1" xmlns="http://www.w3.org/2000/svg" xmlns:xlink="http://www.w3.org/1999/xlink" x="0px" y="0px"
	 viewBox="0 0 300 300" style="enable-background:new 0 0 300 300;" xml:space="preserve">
<style type="text/css">
	@keyframes bounce-up{
		0%   { transform: translateY(-10px); }
		50%  { transform: translateY(10px); }
		100% { transform: translateY(-10px); }
	}
	.st0{fill:#E3ECFF;}
	#light_cloud{fill:#E3ECFF;
    animation: bounce-up 2s infinite;
    animation-timing-function: ease;
    }
</style>
<path id="light_cloud" class="st0" d="M258.7,139.6c-6.4-46.3-46.1-82-94.1-82c-39,0-72.5,23.5-87.1,57.1c-3.4-0.5-7-0.9-10.6-0.9
	C30,113.8,0,143.8,0,180.7c0,35.9,28.4,65.2,63.9,66.8l0,0H64c1,0,1.9,0.1,2.9,0.1s1.9,0,2.9-0.1h92c1,0,1.9,0.1,2.9,0.1
	s1.9-0.1,2.9-0.1h76.1c0.5,0,0.9,0.1,1.4,0.1c30.3,0,54.9-24.6,54.9-54.9C300,167.1,282.4,145.7,258.7,139.6z"/>
</svg>

