<?xml version="1.0" encoding="utf-8"?>
<!-- Generator: Adobe Illustrator 25.2.1, SVG Export Plug-In . SVG Version: 6.00 Build 0)  -->
<svg version="1.1" id="Layer_1" xmlns="http://www.w3.org/2000/svg" xmlns:xlink="http://www.w3.org/1999/xlink" x="0px" y="0px"
	 viewBox="0 0 300 300" style="enable-background:new 0 0 300 300;" xml:space="preserve">
<style type="text/css">
	.st0{fill:#C1CCDB;}
	@keyframes bounce-up{
		0%   { transform: translateY(0px); }
		50%  { transform: translateY(15px); }
		100% { transform: translateY(0px); }
	}
	
	#dark_cloud.st0{
		fill:#C1CCDB;
		animation: bounce-up 2s infinite;
		animation-timing-function: ease;
	}
</style>
<path id="dark_cloud" class="st0" d="M256.8,136.8c-6.2-45.4-45.1-80.3-92.2-80.3c-38.2,0-71,23-85.4,55.9
	c-3.4-0.5-6.9-0.8-10.4-0.8c-36.2,0-65.6,29.4-65.6,65.6c0,35.2,27.8,63.9,62.6,65.5l0,0H66c0.9,0,1.9,0.1,2.8,0.1s1.9,0,2.8-0.1
	h90.2c0.9,0,1.9,0.1,2.8,0.1s1.9-0.1,2.8-0.1h74.6c0.5,0,0.9,0.1,1.4,0.1c29.7,0,53.8-24.1,53.8-53.8
	C297.2,163.7,280,142.7,256.8,136.8z"/>
</svg>
