<?xml version="1.0" encoding="utf-8"?>
<!-- Generator: Adobe Illustrator 25.2.1, SVG Export Plug-In . SVG Version: 6.00 Build 0)  -->
<svg version="1.1" id="Layer_1" xmlns="http://www.w3.org/2000/svg" xmlns:xlink="http://www.w3.org/1999/xlink" x="0px" y="0px"
	 viewBox="0 0 300 300" style="enable-background:new 0 0 300 300;" xml:space="preserve">
<style type="text/css">
	.st0{fill:#C1CCDB;}
	.st1{fill:#E3ECFF;}
	@keyframes bounce-up{
		0%   { transform: translateY(0px); }
		50%  { transform: translateY(20px); }
		100% { transform: translateY(0px); }
	}

@keyframes bounce-down{
		0%   { transform: translateY(0px); }
		50%  { transform: translateY(-20px); }
		100% { transform: translateY(0px); }
	}	

	#dark_cloud.st0{
    fill:#C1CCDB;
    animation: bounce-up 2s infinite;
    animation-timing-function: ease;
    }


#light_cloud{fill:#E3ECFF;
    animation: bounce-down 2s infinite;
    animation-timing-function: ease;
    }

</style>
<path id="dark_cloud" class="st0" d="M209.5,97.9C205,65,176.8,39.7,142.8,39.7c-27.7,0-51.4,16.7-61.8,40.5c-2.4-0.4-5-0.6-7.5-0.6
	c-26.2,0-47.5,21.3-47.5,47.5c0,25.5,20.1,46.3,45.3,47.4l0,0h0.1c0.7,0,1.4,0.1,2,0.1c0.7,0,1.4,0,2-0.1h65.3c0.7,0,1.4,0.1,2,0.1
	c0.7,0,1.4,0,2-0.1h54c0.3,0,0.7,0.1,1,0.1c21.5,0,39-17.4,39-39C238.8,117.4,226.4,102.2,209.5,97.9z"/>
<path id="light_cloud" class="st1" d="M186.5,123.1C182,90.3,153.8,65,119.7,65C92,65,68.3,81.6,57.9,105.5c-2.4-0.4-5-0.6-7.5-0.6
	c-26.2,0-47.5,21.3-47.5,47.5c0,25.5,20.1,46.3,45.3,47.4l0,0h0.1c0.7,0,1.4,0.1,2,0.1c0.7,0,1.4,0,2-0.1h65.3c0.7,0,1.4,0.1,2,0.1
	c0.7,0,1.4,0,2-0.1h54c0.3,0,0.7,0.1,1,0.1c21.5,0,39-17.4,39-39C215.7,142.7,203.3,127.5,186.5,123.1z"/>
</svg>
