<?xml version="1.0" encoding="utf-8"?>
<!-- Generator: Adobe Illustrator 25.2.1, SVG Export Plug-In . SVG Version: 6.00 Build 0)  -->
<svg version="1.1" id="Layer_1" xmlns="http://www.w3.org/2000/svg" xmlns:xlink="http://www.w3.org/1999/xlink" x="0px" y="0px"
	 viewBox="0 0 241.7 239.5" style="enable-background:new 0 0 241.7 239.5;" xml:space="preserve">
<style type="text/css">
	.st0{fill:#C1CCDB;}
	.st1{fill:#E3ECFF;}
	@keyframes bounce-up{
		0%   { transform: translateY(0px); }
		50%  { transform: translateY(20px); }
		100% { transform: translateY(0px); }
	}

@keyframes bounce-down{
		0%   { transform: translateY(0px); }
		50%  { transform: translateY(-20px); }
		100% { transform: translateY(0px); }
	}	

	#dark_cloud.st0{
    fill:#C1CCDB;
    animation: bounce-up 2s infinite;
    animation-timing-function: ease;
    }


#light_cloud{fill:#E3ECFF;
    animation: bounce-down 2s infinite;
    animation-timing-function: ease;
    }

</style>
<path id="dark_cloud" class="st0" d="M211.7,97.3c-4.6-33.7-33.5-59.6-68.4-59.6C115,37.7,90.6,54.8,80,79.2
	c-2.5-0.4-5.1-0.6-7.7-0.6c-26.9,0-48.6,21.8-48.6,48.6c0,26.1,20.6,47.4,46.5,48.6l0,0h0.1c0.7,0,1.4,0.1,2.1,0.1
	c0.7,0,1.4,0,2.1-0.1h66.9c0.7,0,1.4,0.1,2.1,0.1c0.7,0,1.4,0,2.1-0.1h55.3c0.4,0,0.7,0.1,1,0.1c22,0,39.9-17.9,39.9-39.9
	C241.7,117.3,228.9,101.7,211.7,97.3z"/>
<path id="light_cloud" class="st1" d="M188.1,123.2c-4.6-33.7-33.5-59.6-68.4-59.6c-28.3,0-52.7,17.1-63.3,41.5
	c-2.5-0.4-5.1-0.6-7.7-0.6C21.8,104.5,0,126.3,0,153.1c0,26.1,20.6,47.4,46.5,48.6l0,0h0.1c0.7,0,1.4,0.1,2.1,0.1
	c0.7,0,1.4,0,2.1-0.1h66.9c0.7,0,1.4,0.1,2.1,0.1c0.7,0,1.4,0,2.1-0.1h55.3c0.4,0,0.7,0.1,1,0.1c22,0,39.9-17.9,39.9-39.9
	C218.1,143.2,205.3,127.6,188.1,123.2z"/>
</svg>
