<?xml version="1.0" encoding="utf-8"?>
<!-- Generator: Adobe Illustrator 25.2.1, SVG Export Plug-In . SVG Version: 6.00 Build 0)  -->
<svg version="1.1" id="Layer_1" xmlns="http://www.w3.org/2000/svg" xmlns:xlink="http://www.w3.org/1999/xlink" x="0px" y="0px"
	 viewBox="0 0 300 300" style="enable-background:new 0 0 300 300;" xml:space="preserve">
<style type="text/css">
	.st0{fill:#E3ECFF;}
	.st1{fill:#C1CCDB;}
@keyframes bounce-up{
		0%   { transform: translateY(0px); }
		50%  { transform: translateY(20px); }
		100% { transform: translateY(0px); }
	}

@keyframes bounce-down{
		0%   { transform: translateY(0px); }
		50%  { transform: translateY(-20px); }
		100% { transform: translateY(0px); }
	}	

#dark_cloud.st0{
    animation: bounce-up 2s infinite;
    animation-timing-function: ease;
    }


#light_cloud{
    animation: bounce-down 2s infinite;
    animation-timing-function: ease;
    }


</style>
<path id="dark_cloud" class="st0" d="M300,170.4c0-23.1-15.8-42.4-37.1-47.8c-5.7-41.7-41.4-73.7-84.6-73.7
	c-35.1,0-65.2,21.1-78.3,51.3c-3.1-0.5-6.3-0.8-9.6-0.8c-33.2,0-60.2,26.9-60.2,60.2c0,32.3,25.5,58.7,57.5,60.1l0,0h0.1
	c0.9,0,1.7,0.1,2.6,0.1s1.7,0,2.6-0.1h82.8c0.9,0,1.7,0.1,2.6,0.1c0.9,0,1.7-0.1,2.6-0.1h68.5c0.4,0,0.8,0.1,1.3,0.1
	C277.9,219.8,300,197.7,300,170.4"/>
<path id="light_cloud" class="st1" d="M1,191.6c0,32.3,25.5,58.7,57.5,60.1l0,0h0.1c0.9,0,1.7,0.1,2.6,0.1c0.9,0,1.7,0,2.6-0.1h82.8
	c0.9,0,1.7,0.1,2.6,0.1s1.7-0.1,2.6-0.1h68.5c0.4,0,0.8,0.1,1.3,0.1c27.3,0,49.4-22.1,49.4-49.4c0-23-15.8-42.3-37.1-47.8
	c-5.7-41.7-41.4-73.7-84.6-73.7c-35.1,0-65.2,21.1-78.3,51.3c-3.1-0.5-6.3-0.8-9.6-0.8C27.9,131.5,1,158.4,1,191.6"/>
</svg>
