<?xml version="1.0" encoding="utf-8"?>
<!-- Generator: Adobe Illustrator 25.2.1, SVG Export Plug-In . SVG Version: 6.00 Build 0)  -->
<svg version="1.1" id="Layer_1" xmlns="http://www.w3.org/2000/svg" xmlns:xlink="http://www.w3.org/1999/xlink" x="0px" y="0px"
	 viewBox="0 0 300 300" style="enable-background:new 0 0 300 300;" xml:space="preserve">
<style type="text/css">
	.st0{fill:#7FCDEE;stroke:#7FCDEE;stroke-miterlimit:10;}
	.st1{fill:#FBB03B;}
	.st2{fill:#E3ECFF;}

	@keyframes fade-in-move-down-1 {
		0% {
		opacity: 0;
		transform: translateY(-1rem);
		}
		100% {
		opacity: 1;
		transform: translateY(2.8rem);
		}
	}

  	@keyframes fade-in-move-down-2 {
		0% {
		opacity: 0;
		transform: translateY(-1rem);
		}
		100% {
		opacity: 1;
		transform: translateY(2.8rem);
		}
	}

	@keyframes fade-in-move-down-3 {
		0% {
		opacity: 0;
		transform: translateY(-1rem);
		}
		100% {
		opacity: 1;
		transform: translateY(2.8rem);
		}
	}

	@keyframes bounce-down{
		0%   { transform: translateY(0px); }
		50%  { transform: translateY(-20px); }
		100% { transform: translateY(0px); }
	}

	@keyframes rotation {
		from {
		transform: rotate(0deg);
		}
		to {
		transform: rotate(359deg);
		}
	}

	#light_cloud{fill:#E3ECFF;
		animation: bounce-down 2s infinite;
		animation-timing-function: ease;
		}

	#raindrop-1{
		fill:#7FCDEE;stroke:#7FCDEE;stroke-miterlimit:10;
		animation: fade-in-move-down-1 1.7s linear infinite;
		animation-delay:.2s;
		opacity: 0;
	}

	#raindrop-2{
		fill:#7FCDEE;stroke:#7FCDEE;stroke-miterlimit:10;
		animation: fade-in-move-down-2 1.2s linear infinite;
	}

	#raindrop-3{
		fill:#7FCDEE;stroke:#7FCDEE;stroke-miterlimit:10;
		animation: fade-in-move-down-3 1.5s linear infinite;
		animation-delay:.7s;
		opacity: 0;
	}

	#sun {
    	fill:#FBB03B;
	}

	#rays{
		animation: rotation 10s infinite linear;
		position:fixed;
		transform-origin:center;
		transform-box:fill-box;
		fill:#FBB03B;
	}

</style>
<path id="raindrop-1" class="st0" d="M114.1,200.1l-10.3-19.4l-5.3,10.1l-4.9,9.3c-1.1,1.7-1.7,3.7-1.7,5.8
	c0,6.3,5.4,11.3,12,11.3c6.6,0,12-5.1,12-11.3C115.8,203.8,115.2,201.8,114.1,200.1z"/>
<path id="raindrop-2" class="st0" d="M162.9,200.1l-10.3-19.4l-5.3,10.1l-4.9,9.3c-1.1,1.7-1.7,3.7-1.7,5.8c0,6.3,5.4,11.3,12,11.3
	c6.6,0,12-5.1,12-11.3C164.6,203.8,164,201.8,162.9,200.1z"/>
<path id="raindrop-3" class="st0" d="M212.6,200.1l-10.3-19.4l-5.3,10.1l-4.9,9.3c-1.1,1.7-1.7,3.7-1.7,5.8c0,6.3,5.4,11.3,12,11.3
	c6.6,0,12-5.1,12-11.3C214.3,203.8,213.7,201.8,212.6,200.1z"/>
<circle id="sun" class="st1" cx="213.4" cy="74.9" r="45.3"/>
<g id="rays">
	<path class="st1" d="M162.5,75c0-0.9,0-1.8,0.1-2.6h-14.6v5.1h14.6C162.5,76.7,162.5,75.8,162.5,75z"/>
	<path class="st1" d="M179.3,37.3l-10.6-10.6l-3.6,3.6l10.6,10.6C176.8,39.6,178,38.4,179.3,37.3z"/>
	<path class="st1" d="M196.1,27.2l-5.7-13.8l-4.7,2l5.7,13.8C192.9,28.5,194.5,27.8,196.1,27.2z"/>
	<path class="st1" d="M167.2,53.6l-13.7-5.5l-1.9,4.8l13.7,5.5C165.8,56.8,166.5,55.2,167.2,53.6z"/>
	<path class="st1" d="M261,58l14.1-5.8l-2-4.7L259,53.3C259.8,54.8,260.4,56.4,261,58z"/>
	<path class="st1" d="M250.8,41l10.6-10.6l-3.6-3.6l-10.6,10.6C248.5,38.5,249.7,39.7,250.8,41z"/>
	<path class="st1" d="M213.2,24.3c1,0,1.9,0,2.9,0.1v-15H211v15C211.7,24.3,212.5,24.3,213.2,24.3z"/>
	<path class="st1" d="M234.6,29l5.6-13.9l-4.8-1.9l-5.6,13.9C231.5,27.6,233,28.3,234.6,29z"/>
	<path class="st1" d="M213.2,125.7c-0.7,0-1.5,0-2.2-0.1v14.9h5.1v-14.9C215.1,125.7,214.2,125.7,213.2,125.7z"/>
	<path class="st1" d="M247.3,112.5l10.6,10.6l3.6-3.6l-10.6-10.6C249.7,110.2,248.5,111.4,247.3,112.5z"/>
	<path class="st1" d="M259.2,96.3l14.1,5.7l1.9-4.8l-14.1-5.7C260.6,93.2,259.9,94.8,259.2,96.3z"/>
	<path class="st1" d="M263.8,72.3c0,0.9,0.1,1.7,0.1,2.6c0,0.8,0,1.7-0.1,2.5h15.3v-5.1H263.8z"/>
	<path class="st1" d="M191.9,121l-5.6,13.8l4.8,1.9l5.6-13.8C195,122.3,193.4,121.7,191.9,121z"/>
	<path class="st1" d="M175.6,109l-10.5,10.5l3.6,3.6l10.5-10.5C177.9,111.5,176.7,110.2,175.6,109z"/>
	<path class="st1" d="M230.1,122.8l5.7,13.9l4.7-2l-5.7-13.8C233.3,121.6,231.7,122.2,230.1,122.8z"/>
	<path class="st1" d="M165.4,92l-13.5,5.6l2,4.7l13.5-5.6C166.7,95.2,166,93.6,165.4,92z"/>
</g>
<path id="light_cloud" class="st2" d="M227,99.1c-4.5-32.9-32.7-58.2-66.8-58.2c-27.7,0-51.4,16.7-61.8,40.5c-2.4-0.4-5-0.6-7.5-0.6
	c-26.2,0-47.5,21.3-47.5,47.5c0,25.5,20.1,46.3,45.3,47.4l0,0h0.1c0.7,0,1.4,0.1,2,0.1c0.7,0,1.4,0,2-0.1h65.3c0.7,0,1.4,0.1,2,0.1
	c0.7,0,1.4,0,2-0.1h54c0.3,0,0.7,0.1,1,0.1c21.5,0,39-17.4,39-39C256.3,118.7,243.9,103.5,227,99.1z"/>
</svg>
