<?xml version="1.0" encoding="utf-8"?>
<!-- Generator: Adobe Illustrator 25.2.1, SVG Export Plug-In . SVG Version: 6.00 Build 0)  -->
<svg version="1.1" id="Layer_1" xmlns="http://www.w3.org/2000/svg" xmlns:xlink="http://www.w3.org/1999/xlink" x="0px" y="0px"
	 viewBox="0 0 300 300" style="enable-background:new 0 0 300 300;" xml:space="preserve">
<style type="text/css">
	.st0{fill:#7FCDEE;stroke:#7FCDEE;stroke-miterlimit:10;}
	.st1{fill:#FFDF57;stroke:#FFDF57;stroke-miterlimit:10;}
	.st2{fill:#C1CCDB;}

		@keyframes fade-in-move-down-1 {
		0% {
		opacity: 0;
		transform: translateY(-1rem);
		}
		100% {
		opacity: 1;
		transform: translateY(2.8rem);
		}
	}

  	@keyframes fade-in-move-down-2 {
		0% {
		opacity: 0;
		transform: translateY(-1rem);
		}
		100% {
		opacity: 1;
		transform: translateY(2.8rem);
		}
	}

	@keyframes fade-in-move-down-3 {
		0% {
		opacity: 0;
		transform: translateY(-1rem);
		}
		100% {
		opacity: 1;
		transform: translateY(2.8rem);
		}
	}

	@keyframes bounce-down{
		0%   { transform: translateY(0px); }
		50%  { transform: translateY(-10px); }
		100% { transform: translateY(0px); }
	}

		@keyframes little-star-rotation {
		0% {
			transform: rotate(0deg);
			opacity: 0;
			}
		50% {
			transform: rotate(179.5deg);
			opacity: 1;
			}
		100%{
			transform: rotate(0deg);
			opacity: 0;
		}
		}

		@keyframes big-star-rotation {
		0% {
			transform: rotate(359deg);
			opacity: 0;
			}
		50% {
			transform: rotate(150.5deg);
			opacity: 1;
			}
		100%{
			transform: rotate(269deg);
			opacity: 0;
		}
		}

	#light_cloud{
		animation: bounce-down 2s infinite;
		animation-timing-function: ease;
		}

	#raindrop-1{
		fill:#7FCDEE;stroke:#7FCDEE;stroke-miterlimit:10;
		animation: fade-in-move-down-1 1.7s linear infinite;
		animation-delay:.2s;
		opacity: 0;
	}

	#raindrop-2{
		fill:#7FCDEE;stroke:#7FCDEE;stroke-miterlimit:10;
		animation: fade-in-move-down-2 1.2s linear infinite;
	}

	#raindrop-3{
		fill:#7FCDEE;stroke:#7FCDEE;stroke-miterlimit:10;
		animation: fade-in-move-down-3 1.5s linear infinite;
		animation-delay:.7s;
		opacity: 0;
	}

		#littlestar{
		animation: little-star-rotation 2.5s infinite linear;
		position:fixed;
		transform-origin:center;
		transform-box:fill-box;
		animation-delay:.5s
	}

	#big-star{
		animation: big-star-rotation 2.5s infinite linear;
		position:fixed;
		transform-origin:center;
		transform-box:fill-box;
	}
	}
</style>
<path id="raindrop-1" class="st0" d="M114.1,200.1l-10.3-19.4l-5.3,10.1l-4.9,9.3c-1.1,1.7-1.7,3.7-1.7,5.8
	c0,6.3,5.4,11.3,12,11.3c6.6,0,12-5.1,12-11.3C115.8,203.8,115.2,201.8,114.1,200.1z"/>
<path id="raindrop-2" class="st0" d="M162.9,200.1l-10.3-19.4l-5.3,10.1l-4.9,9.3c-1.1,1.7-1.7,3.7-1.7,5.8c0,6.3,5.4,11.3,12,11.3
	c6.6,0,12-5.1,12-11.3C164.6,203.8,164,201.8,162.9,200.1z"/>
<path id="raindrop-3" class="st0" d="M212.6,200.1l-10.3-19.4l-5.3,10.1l-4.9,9.3c-1.1,1.7-1.7,3.7-1.7,5.8c0,6.3,5.4,11.3,12,11.3
	c6.6,0,12-5.1,12-11.3C214.3,203.8,213.7,201.8,212.6,200.1z"/>
<path class="st1" d="M119,112.8c-1.4,0-2.8-0.1-4.1-0.2c-27.1-2.1-48.5-24.8-48.5-52.5c0-21.2,12.5-39.4,30.5-47.8c0,0,0,0,0,0
	C74,12.7,52.5,26.3,43.2,48.8c-12.4,30,1.9,64.3,31.9,76.7c25.5,10.5,54.1,1.8,69.7-19.4C137.2,110.4,128.4,112.8,119,112.8z"/>
<path id="light_cloud" class="st2" d="M227,99.1c-4.5-32.9-32.7-58.2-66.8-58.2c-27.7,0-51.4,16.7-61.8,40.5c-2.4-0.4-5-0.6-7.5-0.6
	c-26.2,0-47.5,21.3-47.5,47.5c0,25.5,20.1,46.3,45.3,47.4l0,0h0.1c0.7,0,1.4,0.1,2,0.1c0.7,0,1.4,0,2-0.1h65.3c0.7,0,1.4,0.1,2,0.1
	c0.7,0,1.4,0,2-0.1h54c0.3,0,0.7,0.1,1,0.1c21.5,0,39-17.4,39-39C256.3,118.7,243.9,103.5,227,99.1z"/>
<path id="big-star" class="st1" d="M99.2,40c-0.1-2.1-0.3-4.3-0.4-6.4c-2-0.7-4-1.4-5.9-2.2c2.2-0.1,4.4-0.3,6.5-0.4
	c0.7-2,1.4-3.9,2.1-5.9c0.1,2.1,0.2,4.2,0.2,6.3c2,0.8,4.1,1.6,6.1,2.3c-2.2,0.1-4.3,0.2-6.5,0.3C100.6,35.9,99.9,38,99.2,40z"/>
<path id="littlestar" class="st1" d="M86,58.9c-0.9-1.3-1.8-2.6-2.8-3.9c-1.5,0.3-3.1,0.6-4.6,1c1.3-0.9,2.6-1.9,3.9-2.8
	c-0.3-1.5-0.7-3-1-4.5c0.9,1.3,1.7,2.6,2.6,3.8c1.6-0.3,3.2-0.6,4.7-0.9c-1.3,0.9-2.6,1.8-4,2.7C85.3,55.8,85.6,57.4,86,58.9z"/>
</svg>
