<?xml version="1.0" encoding="utf-8"?>
<!-- Generator: Adobe Illustrator 25.2.1, SVG Export Plug-In . SVG Version: 6.00 Build 0)  -->
<svg version="1.1" id="Layer_1" xmlns="http://www.w3.org/2000/svg" xmlns:xlink="http://www.w3.org/1999/xlink" x="0px" y="0px"
	 viewBox="0 0 300 300" style="enable-background:new 0 0 300 300;" xml:space="preserve">
<style type="text/css">


	@keyframes rotation {
		0% {
			transform: rotate(0deg);
			}
		50% {
			transform: rotate(45deg);
			}
		100%{
			transform: rotate(0deg);
		}
		}

	.st0{
		animation: rotation 2s infinite;
		animation-timing-function: ease;
		fill:#E3ECFF;
	}
</style>
<path class="st0" d="M277.3,148.4h-20.9l17.1-17.1c1.1-1.1,1.1-3,0-4.1c-1.1-1.1-3-1.1-4.1,0l-21.2,21.2h-24.6l17.1-17.1
	c1.1-1.1,1.1-3,0-4.1c-1.1-1.1-3-1.1-4.1,0l-21.2,21.2h-24.6l17.1-17.1c1.1-1.1,1.1-3,0-4.1c-0.1-0.1-0.2-0.1-0.2-0.2
	c0-0.1,0-0.2,0-0.3c0-1.6-1.3-2.9-2.9-2.9h-24.2l17.4-17.4h30c1.6,0,2.9-1.3,2.9-2.9s-1.3-2.9-2.9-2.9h-24.2l17.4-17.4h30
	c1.6,0,2.9-1.3,2.9-2.9c0-1.6-1.3-2.9-2.9-2.9H227l14.8-14.8c1.1-1.1,1.1-3,0-4.1c-1.1-1.1-3-1.1-4.1,0L222.8,73V48.9
	c0-1.6-1.3-2.9-2.9-2.9s-2.9,1.3-2.9,2.9v30l-17.4,17.4V72.1c0-1.6-1.3-2.9-2.9-2.9s-2.9,1.3-2.9,2.9v30l-17.4,17.4V95.4
	c0-1.6-1.3-2.9-2.9-2.9c-0.1,0-0.2,0-0.3,0c-0.1-0.1-0.1-0.2-0.2-0.2c-1.1-1.1-3-1.1-4.1,0l-17.1,17.1V84.7l21.2-21.2
	c1.1-1.1,1.1-3,0-4.1c-1.1-1.1-3-1.1-4.1,0l-17.1,17.1V51.9l21.2-21.2c1.1-1.1,1.1-3,0-4.1c-1.1-1.1-3-1.1-4.1,0l-17.1,17.1V22.7
	c0-1.6-1.3-2.9-2.9-2.9c-1.6,0-2.9,1.3-2.9,2.9v20.9l-17.1-17.1c-1.1-1.1-3-1.1-4.1,0c-1.1,1.1-1.1,3,0,4.1l21.2,21.2v24.6
	l-17.1-17.1c-1.1-1.1-3-1.1-4.1,0c-1.1,1.1-1.1,3,0,4.1l21.2,21.2v24.6l-17.1-17.1c-1.1-1.1-3-1.1-4.1,0c-0.1,0.1-0.1,0.2-0.2,0.2
	c-0.1,0-0.2,0-0.3,0c-1.6,0-2.9,1.3-2.9,2.9v24.2l-17.4-17.4v-30c0-1.6-1.3-2.9-2.9-2.9s-2.9,1.3-2.9,2.9v24.2L80.5,78.9v-30
	c0-1.6-1.3-2.9-2.9-2.9s-2.9,1.3-2.9,2.9V73L59.8,58.3c-1.1-1.1-3-1.1-4.1,0c-1.1,1.1-1.1,3,0,4.1l14.8,14.8H46.3
	c-1.6,0-2.9,1.3-2.9,2.9c0,1.6,1.3,2.9,2.9,2.9h30l17.4,17.4H69.5c-1.6,0-2.9,1.3-2.9,2.9s1.3,2.9,2.9,2.9h30l17.4,17.4H92.8
	c-1.6,0-2.9,1.3-2.9,2.9c0,0.1,0,0.2,0,0.3c-0.1,0.1-0.2,0.1-0.2,0.2c-1.1,1.1-1.1,3,0,4.1l17.1,17.1H82.1l-21.2-21.2
	c-1.1-1.1-3-1.1-4.1,0c-1.1,1.1-1.1,3,0,4.1l17.1,17.1H49.3L28,127.1c-1.1-1.1-3-1.1-4.1,0c-1.1,1.1-1.1,3,0,4.1L41,148.4H20.1
	c-1.6,0-2.9,1.3-2.9,2.9s1.3,2.9,2.9,2.9H41l-17.1,17.1c-1.1,1.1-1.1,3,0,4.1c0.6,0.6,1.3,0.9,2.1,0.9s1.5-0.3,2.1-0.9l21.2-21.2
	h24.6l-17.1,17.1c-1.1,1.1-1.1,3,0,4.1c0.6,0.6,1.3,0.9,2.1,0.9s1.5-0.3,2.1-0.9l21.2-21.2h24.6l-17.1,17.1c-1.1,1.1-1.1,3,0,4.1
	c0.1,0.1,0.2,0.1,0.2,0.2c0,0.1,0,0.2,0,0.3c0,1.6,1.3,2.9,2.9,2.9H117l-17.4,17.4h-30c-1.6,0-2.9,1.3-2.9,2.9s1.3,2.9,2.9,2.9h24.2
	l-17.4,17.4h-30c-1.6,0-2.9,1.3-2.9,2.9s1.3,2.9,2.9,2.9h24.2l-14.8,14.8c-1.1,1.1-1.1,3,0,4.1c0.6,0.6,1.3,0.9,2.1,0.9
	s1.5-0.3,2.1-0.9l14.8-14.8v24.2c0,1.6,1.3,2.9,2.9,2.9s2.9-1.3,2.9-2.9v-30l17.4-17.4v24.2c0,1.6,1.3,2.9,2.9,2.9s2.9-1.3,2.9-2.9
	v-30l17.4-17.4v24.2c0,1.6,1.3,2.9,2.9,2.9c0.1,0,0.2,0,0.3,0c0.1,0.1,0.1,0.2,0.2,0.2c0.6,0.6,1.3,0.9,2.1,0.9
	c0.8,0,1.5-0.3,2.1-0.9l17.1-17.1v24.6l-21.2,21.2c-1.1,1.1-1.1,3,0,4.1c0.6,0.6,1.3,0.9,2.1,0.9c0.8,0,1.5-0.3,2.1-0.9l17.1-17.1
	v24.6L124.5,272c-1.1,1.1-1.1,3,0,4.1c0.6,0.6,1.3,0.9,2.1,0.9c0.8,0,1.5-0.3,2.1-0.9l17.1-17.1v20.9c0,1.6,1.3,2.9,2.9,2.9
	c1.6,0,2.9-1.3,2.9-2.9V259l17.1,17.1c0.6,0.6,1.3,0.9,2.1,0.9c0.8,0,1.5-0.3,2.1-0.9c1.1-1.1,1.1-3,0-4.1l-21.2-21.2v-24.6
	l17.1,17.1c0.6,0.6,1.3,0.9,2.1,0.9c0.8,0,1.5-0.3,2.1-0.9c1.1-1.1,1.1-3,0-4.1l-21.2-21.2v-24.6l17.1,17.1c0.6,0.6,1.3,0.9,2.1,0.9
	c0.8,0,1.5-0.3,2.1-0.9c0.1-0.1,0.1-0.2,0.2-0.2c0.1,0,0.2,0,0.3,0c1.6,0,2.9-1.3,2.9-2.9V183l17.4,17.4v30c0,1.6,1.3,2.9,2.9,2.9
	s2.9-1.3,2.9-2.9v-24.2l17.4,17.4v30c0,1.6,1.3,2.9,2.9,2.9s2.9-1.3,2.9-2.9v-24.2l14.8,14.8c0.6,0.6,1.3,0.9,2.1,0.9
	c0.8,0,1.5-0.3,2.1-0.9c1.1-1.1,1.1-3,0-4.1L227,225.4h24.2c1.6,0,2.9-1.3,2.9-2.9s-1.3-2.9-2.9-2.9h-30l-17.4-17.4h24.2
	c1.6,0,2.9-1.3,2.9-2.9s-1.3-2.9-2.9-2.9h-30l-17.4-17.4h24.2c1.6,0,2.9-1.3,2.9-2.9c0-0.1,0-0.2,0-0.3c0.1-0.1,0.2-0.1,0.2-0.2
	c1.1-1.1,1.1-3,0-4.1l-17.1-17.1h24.6l21.2,21.2c0.6,0.6,1.3,0.9,2.1,0.9s1.5-0.3,2.1-0.9c1.1-1.1,1.1-3,0-4.1l-17.1-17.1h24.6
	l21.2,21.2c0.6,0.6,1.3,0.9,2.1,0.9c0.8,0,1.5-0.3,2.1-0.9c1.1-1.1,1.1-3,0-4.1l-17.1-17.1h20.9c1.6,0,2.9-1.3,2.9-2.9
	S278.9,148.4,277.3,148.4z M170.4,203.8L151.6,185v-26.6l18.8,18.8V203.8z M127,98.8l18.8,18.8v26.6L127,125.4V98.8z M155.8,148.4
	l18.8-18.8h26.6l-18.8,18.8H155.8z M170.4,125.4l-18.8,18.8v-26.6l18.8-18.8V125.4z M141.6,148.4H115l-18.8-18.8h26.6L141.6,148.4z
	 M141.6,154.2L122.8,173H96.2l18.8-18.8H141.6z M127,177.2l18.8-18.8V185L127,203.8V177.2z M155.8,154.2h26.6l18.8,18.8h-26.6
	L155.8,154.2z"/>
</svg>
