<?xml version="1.0" encoding="utf-8"?>
<!-- Generator: Adobe Illustrator 25.2.1, SVG Export Plug-In . SVG Version: 6.00 Build 0)  -->
<svg version="1.1" id="Layer_1" xmlns="http://www.w3.org/2000/svg" xmlns:xlink="http://www.w3.org/1999/xlink" x="0px" y="0px"
	 viewBox="0 0 300 300" style="enable-background:new 0 0 300 300;" xml:space="preserve">
<style type="text/css">
	.st0{fill:#F98D21;stroke:#000000;stroke-width:4;stroke-miterlimit:10;}
	.st1{fill:#DB7519;stroke:#DB7519;stroke-miterlimit:10;}
	.st2{fill:none;stroke:#000000;stroke-width:4;stroke-miterlimit:10;}
	.st3{fill:#009245;stroke:#000000;stroke-width:4;stroke-miterlimit:10;}
</style>
<g>
	<rect x="136.3" y="189.1" class="st0" width="132" height="13.1"/>
	<path class="st0" d="M255.8,202.1c-3.5,18.8-7,37.6-10.5,56.4c-0.5,2.8-1.1,5.7-1.6,8.5c-1,5.6-2.1,11.2-3.1,16.8
		c-0.8,4.3-1.6,8.5-2.4,12.8h-71.7c-2.6-14-5.2-27.9-7.8-41.9c-1.6-8.4-3.1-16.7-4.7-25.1c-0.5-2.4-0.9-4.9-1.4-7.3
		c-1.2-6.7-2.5-13.5-3.8-20.2H255.8z"/>
	<path class="st1" d="M243.4,272.3c-1.5,5.7-2.9,11.7-4.1,17.9c-0.4,2.2-0.8,4.3-1.2,6.4h-71.7c-2.6-14-5.2-27.9-7.8-41.9
		c-1.6-8.4-3.1-16.7-4.7-25.1c-0.5-2.4-0.9-4.9-1.4-7.3c10.9,2.6,18.8,6.5,23.8,9.4c24.6,14.3,30,34.1,51.9,39.5
		C234.5,272.8,240.1,272.6,243.4,272.3z"/>
	<line class="st2" x1="166.4" y1="296.6" x2="239.7" y2="296.6"/>
	<line class="st2" x1="255.5" y1="203.9" x2="238.1" y2="296.6"/>
	<line class="st2" x1="148.8" y1="202.1" x2="166.4" y2="296.6"/>
</g>
<g id="leaf_x5F_1">
	<path class="st3" d="M144.8,73.3c0.8,1.2,1.5,2.4,2.3,3.6c10.3-9.9,17.4-10.3,21.2-9.8c19.9,2.8,30.7,44.4,30.7,73.7
		c0,20-5,36-8.7,45.5c2.2,0,4.5,0,6.7,0c2.4-7,6-19.6,6.6-35.5c1.4-42.3-19.4-90-39.9-90.3C159.2,60.4,152.7,62.6,144.8,73.3z"/>
	<path class="st3" d="M177.2,124.4c-5.3-3.9-12-6.9-12.3-7c-4.9-2.1-7.9-2.7-11.9-6c-1.5-1.2-5.3-4.5-4.8-6.5
		c0.7-2.6,8.2-1.8,11-1.5c1.6,0.2,5.8,0.7,11.1,2.9c3.4,1.4,6.4,2.7,9.4,5.5c3.1,3,4.3,6.3,5.5,8.3c1.7,2.8,3.4,5.5,5,8.3
		c6.2-8.1,9.4-13.3,9.9-19.9c0.6-7.1-1.8-12.3-2.3-13.3c-2.5-5.2-6.3-8-10.6-11c-13.3-9.4-27.2-10.9-32.2-9c-4,1.5-5.6,2.8-5.6,2.8
		c-1.7,1.4-2.3,2.6-3.2,2.4c-1-0.2-1-1.9-2.3-4.4c0,0-0.9-1.4-2.9-3.8c-2.5-3-8.3-6.1-14.5-7.5c-6-1.4-12.5-1.2-18.3,0.9
		C97,69.3,88,80.1,87,91.1c-0.4,4.5,0.5,9.5,2.1,15.6c1.2-0.9,2.7-1.9,4.1-2.7c4-2.3,7.4-3.1,11-4c4-1,8.2-1.2,16.4-1.6
		c2.7-0.1,5.4-0.2,8.1,1.4c0.7,0.5,2.6,1.6,3.2,3.8c0,0.1,1,3.2-0.6,4.5c-0.2,0.2-0.4,0.3-0.6,0.4c-1.6,0.8-3.4,0.3-4.6,0
		c0,0-2-0.5-5.3-0.8c-2.2-0.3-3.9-0.2-6.4-0.1c-1.4,0.1-1.1,0.1-5.9,0.5c-2.7,0.2-4.1,0.3-4.8,0.3c-2.5,0-3-0.2-5.2-0.1
		c-1.9,0.1-3.3,0.4-3.9,0.5c-1.8,0.4-3.3,1-4.4,1.4c0.5,1.7,1,3.6,1.6,5.5c0.8,2.7,1.9,6.2,2.2,11.2c0.2,3.6-0.1,5.5-0.6,11.8
		c-0.1,1.4-0.2,2.6-0.3,3.8c0.9-1.3,1.8-2.6,2.7-3.9c1.2-1.7,2.4-4.6,5.4-7.1c2.5-2.1,4.9-3,9.3-4.5c1.6-0.5,4.2-1.4,7.6-1.8
		c2.1-0.3,9.8-1.2,10.6,1.1c0.7,1.9-3.8,5.4-6,7c-2.3,1.7-4.2,2.8-6.7,4c-7.7,3.8-9.5,4-12.2,5.7c-4.7,2.9-7.6,6.2-10.7,10.2
		c2.4,6.4,8.9,7.4,15.2,16.2c3.4,4.7,5,9.2,5.8,12.1c4.4-4.6,8-5.6,10.5-5.5c2.5,0.1,4.6,1.2,8.9,1c0,0,2.2-0.1,4.6-0.7
		c2.1-0.5,4-1.4,5.9-2.6c-0.5-2-1.2-3.9-2-5.7c-1.1-2.4-2.5-4.7-4.2-6.8c-3.3-4.2-5-4.4-5.3-6.9c-0.3-1.8,0.1-4.7,0.1-4.7
		c0,0,1.2-1.2,2-1.8c0.4-0.3,1.9-1.4,3.5-1.3c1.2,0.1,1.6,0.9,4.8,4.6c2.4,2.7,2.5,2.6,3,3.5c1.4,2.3,1.8,4.5,2,5.7
		c0.3,1.8,0.6,5.4,1,6.8c0,0.1,0.1,0.3,0.2,0.7c0.1,0.6,0.2,1.1,0.3,1.8c2.1-1.8,4.6-3.9,7.6-6.2c6.6-5.2,7.3-4.8,11.6-8.8
		c3.2-3,5.6-5.8,7.9-8.5c-0.9-1-1.4-1.7-2.4-2.5c-0.8-0.6-1.4-1-2.4-1.5c-0.9-0.5-1-0.5-3.9-1.6c-2.3-0.9-3.4-1.4-4.5-1.9
		c-0.6-0.3-0.9-0.4-1-0.5c-1.7-1.1-3.3-2.5-4.7-4c-0.2-0.3-0.5-0.5-0.6-0.8c-0.4-1.1,0.9-2.4,1-2.4c1-0.9,2.2-0.9,2.7-1
		c1.8,0,3.1,0.8,4.4,1.7c4,2.6,6,3.9,7.7,5.6c1.6,1.5,3,2.9,4.3,5.2c0.3,0.6,0.6,1.2,0.9,1.8c2.6-3.3,4.7-6.3,7-9.2
		c0.3-0.4,0.7-0.8,1-1.2C183.5,130.2,180.9,127.2,177.2,124.4z M169.2,83.9c2.1,0.8,4,2,7.8,4.3c0.3,0.2,2.4,1.5,4.6,3.6
		c1.7,1.6,2.1,2.4,2.4,3.1c0.4,1.4,0.5,3.8-0.8,4.4c-1,0.4-2.2,0.3-3.5-0.2c-1.6-0.6-3.4-1.5-6.1-4c-2.3-2.2-2.1-2.6-4.6-4.9
		c-0.8-0.8-2.3-2.1-4.1-3.4c-4.3-3-7.6-3.3-7.5-3.8C157.5,82.3,163.4,81.8,169.2,83.9z M131.5,80c-0.3,0.2-1.4,0.8-3.6,1.1
		c-2.7,0.4-4.5,0-9.7-1c-4.1-0.8-4.9-1-6.8-1.2c-0.8-0.1-1.5-0.2-2.2-0.2c-1.3-0.1-2.3-0.2-3.4-0.2c-1.4,0-1.8,0.2-5,0.5
		c-3.7,0.4-3.3,0.2-4.5,0.5c-3.2,0.6-4.8,0.9-6,2.1c-0.7,0.6-1,1.2-1,1.2c0,0,2.4-3.7,5-6.1c4-3.6,8.5-4,17.2-5
		c0,0,7.2-0.8,17.2,1.6c0.5,0.1,1.6,0.5,2.6,1.4c0.1,0,0.1,0.1,0.3,0.3c1.2,1.6,1.8,2.3,1.5,3.2C133,78.6,132.7,79.3,131.5,80z"/>
</g>
<g id="leaf_x5F_2">
	<path class="st3" d="M235.7,24.4c-1.8-0.5-3.7-1-5.5-1.5c-10.6,27.1-22.3,66.6-23.7,115.1c-0.5,18.2,0.4,34.8,2.1,49.5
		c2.1,0.1,4.2,0.2,6.3,0.3c-1.8-14.6-2.9-31-2.5-48.8C213.5,91.7,224.7,52.5,235.7,24.4z"/>
	<path class="st3" d="M285.4,63c-5.7-3-12.7-4.9-13.1-5c-5.1-1.4-8.3-1.5-12.6-4.2c-1.6-1-5.8-3.5-5.4-5.5c0.5-2.6,8.2-2.8,11.2-2.9
		c1.6,0,6-0.1,11.5,1.3c3.6,0.9,6.7,1.7,9.9,4c3.3,2.4,4.8,5.3,6.2,7.1c0.5,0.7,1.1,1.3,1.6,2c1.3-9.1,3-18.2,1.5-27.2
		c-2.5-1.7-5.1-2.7-8.4-3.9c-4.7-1.8-8.8-2.6-11.2-3c-5.7-0.9-10.6-0.8-14.3-0.7c-4.1,0.1-6.2,0.1-6.5,0.1c-0.1,0-1.7,0.2-3.9,0.1
		c-1.9-0.1-2.8-0.1-3-0.5c-0.5-1,2.4-4,5.2-5.5c2.7-1.4,5.9-1.9,18.2,0.9c15.5,3.6,20.6,6.7,23,8.5c-3.3-11.4-12.7-21-23.9-24.1
		c-6.2-1.7-12.8-1.5-18.8,0.5c-6.1,2-11.8,5.7-14,9.1c-1.8,2.7-2.6,4.2-2.6,4.2c-1.1,2.7-0.9,4.5-1.9,4.8c-0.9,0.3-1.7-1-3.5-2.3
		c0,0-1.8-1-6-2.5c-4-1.5-19.8-0.9-33.4,9.8c-5.9,4.7-7.5,11.6-8.4,14.6c-0.7,2.5-2.2,7.9-1.1,14.2c1.5,8.6,7,14.6,18,26.6
		c0.8,0.9,1.5,1.7,2.2,2.4c2-5.7,4-11.4,5.9-17.1c0.7-2,1-5,3.3-8.2c2.2-3.1,4.8-4.7,7.8-6.7c4.6-3,8.6-4.3,10.2-4.8
		c2.7-0.8,9.9-3.1,11.3-0.9c1.1,1.6-1.9,5.2-3,6.6c-3.1,3.7-5.9,4.8-10.1,7.6c-0.3,0.2-6.1,4.1-10.3,8.5c-4.1,4.4-6,8.6-8.2,13.8
		c-0.7,1.7-1.5,3.8-2.4,6c0.8,0.9,1.6,1.9,2.6,3.2c4.4,5.8,4.6,7.5,7.6,10.3c4.3,4.1,6.9,3.5,14.8,7.1c0.9,0.4,1.8,0.9,2.6,1.3
		c-0.1-2.5-0.1-3.9,0.2-5.7c0.3-1.7,1.1-3.5,2.6-7.1c1.5-3.6,2.2-4.6,2.6-5.1c1-1.5,1.9-2.3,3.3-3.8c2.3-2.2,3.4-3.3,4.5-3.1
		c1.2,0.3,2,1.9,2.1,2.2c0,0,0.9,1.1,0.4,2.2c-1.2,2.8-3.2,5.1-4.8,7.6c-1.5,2.3-2.7,4.9-3.6,7.5c-1,2.8-1.6,5.8-1.8,8.7
		c5.2,3.7,6.5,6.5,12.4,7.5c6.5,1,7.9-0.3,16.6-1.6c5.5-0.8,11.9-0.4,15.8,3.8c-0.1-5.3,2.2-10,4.8-14.6c-0.5-0.7-0.8-1.2-1.3-1.8
		c-0.7-0.9-1.5-1.6-2.5-2.6c-0.5-0.5-1-1-1.7-1.6c-1.5-1.4-2.2-1.9-5.5-4.7c-4.3-3.6-5.8-4.8-7.3-7.2c-1.3-2-1.5-3.3-1.6-3.7
		c-0.3-1.5,0.1-2.2,0.3-2.5c0.5-0.8,1.5-0.9,3.5-0.9c0.3,0,0.4,0,0.4,0c0.9,0.1,1.8,0.5,2.9,1.2c4.1,2.7,11.1,13.8,11.1,13.8
		c1.4,2.2,2.7,4.3,3.8,6.3c2.3-4.1,4.3-8.3,4.6-12.9c0.3-4.6-1.2-9.2-1.9-13.7c-0.6-3.8-0.6-7.7-0.3-11.6
		C291.4,66.8,288.8,64.8,285.4,63z M222.4,38.9c-0.2,0.2-0.6,0.4-0.9,0.5c-1.9,0.8-4,1.4-6.1,1.7c-0.2,0-0.5,0-1.2,0
		c-1.3,0-2.5-0.1-5-0.3c-3.1-0.2-3.3-0.3-4.3-0.3c-1.1,0-1.9,0.1-2.9,0.3c-1.8,0.4-2.5,1.1-5,1.8c-1,0.3-1.6,0.4-1.7,0.2
		c-0.4-0.5,2-2.9,4.3-4.6c2.2-1.6,4.2-2.3,6.3-3c2.3-0.8,4.7-1.1,9.6-1.8c1.6-0.2,3.2-0.4,4.8,0.4c0.5,0.2,1.6,0.9,2.1,2.2
		C222.5,36.2,223.3,38,222.4,38.9z M242.6,71c0,0.8-0.3,1.7-0.6,2.5c-0.7,1.7-1.6,3.3-2.9,4.6c-1.1,1.2-1.8,2.8-3,3.8
		c-0.7,0.6-1.6,1-2.5,1c-1.2-0.1-2.3-1.1-2.2-2.4c0.1-0.7,0.5-1.4,0.9-2c1.8-2.9,3.7-5.7,6.1-8.1c0.9-0.9,2.1-1.7,3.1-1.2
		C242.2,69.3,242.6,70.1,242.6,71z"/>
</g>
</svg>
