<?xml version="1.0" encoding="utf-8"?>
<!-- Generator: Adobe Illustrator 25.2.1, SVG Export Plug-In . SVG Version: 6.00 Build 0)  -->
<svg version="1.1" id="Layer_1" xmlns="http://www.w3.org/2000/svg" xmlns:xlink="http://www.w3.org/1999/xlink" x="0px" y="0px"
	 viewBox="0 0 1920 1588" style="enable-background:new 0 0 1920 1588;" xml:space="preserve">
<style type="text/css">
	.st0{fill:#F7ABAD;}
	.st1{opacity:0.39;fill:url(#SVGID_1_);stroke:url(#SVGID_2_);stroke-miterlimit:10;}
	.st2{fill:#F7D289;stroke:#FFFFFF;stroke-miterlimit:10;}
	.st3{fill:url(#SVGID_3_);stroke:url(#SVGID_4_);stroke-miterlimit:10;}
</style>
<g>
	<rect x="0.5" y="0.5" class="st0" width="1919" height="1587"/>
	<path class="st0" d="M1919,1v1586H1V1H1919 M1920,0H0v1588h1920V0L1920,0z"/>
</g>
<linearGradient id="SVGID_1_" gradientUnits="userSpaceOnUse" x1="-0.5" y1="624.75" x2="1920" y2="624.75">
	<stop  offset="0" style="stop-color:#F7ABAD"/>
	<stop  offset="9.793597e-02" style="stop-color:#F7B3A5"/>
	<stop  offset="0.363" style="stop-color:#F7C595"/>
	<stop  offset="0.6507" style="stop-color:#F7CF8C"/>
	<stop  offset="1" style="stop-color:#F7D289"/>
</linearGradient>
<linearGradient id="SVGID_2_" gradientUnits="userSpaceOnUse" x1="-1.0111" y1="624.8178" x2="1920.5009" y2="624.8178">
	<stop  offset="0" style="stop-color:#F7ABAD"/>
	<stop  offset="1" style="stop-color:#F7D289"/>
</linearGradient>
<path class="st1" d="M1920,0C1280.5,168.5,641,337,1.5,505.5c1.6,189.3,1.6,378.7,0,568c-0.5,58.7-1.2,117.3-2,176
	c640-293.7,1280-587.3,1920-881C1919.7,245.7,1919.8,122.8,1920,0z"/>
<path class="st2" d="M574.5,1439.5"/>
<path class="st2" d="M591.5,1446.5"/>
<linearGradient id="SVGID_3_" gradientUnits="userSpaceOnUse" x1="2097.5" y1="1199.5" x2="2097.5" y2="1199.5">
	<stop  offset="0" style="stop-color:#F7ABAD"/>
	<stop  offset="9.793597e-02" style="stop-color:#F7B3A5"/>
	<stop  offset="0.363" style="stop-color:#F7C595"/>
	<stop  offset="0.6507" style="stop-color:#F7CF8C"/>
	<stop  offset="1" style="stop-color:#F7D289"/>
</linearGradient>
<linearGradient id="SVGID_4_" gradientUnits="userSpaceOnUse" x1="2097.5" y1="1199.5" x2="2097.5" y2="1199.5">
	<stop  offset="0" style="stop-color:#F7ABAD"/>
	<stop  offset="1" style="stop-color:#F7D289"/>
</linearGradient>
<path class="st3" d="M2097.5,1199.5"/>
</svg>
